<svg version="1.1" xmlns="http://www.w3.org/2000/svg"
    viewBox="-2517.001088618526 -1007.2 8182.076088618525 2532.2250000000004">
    <desc>Created with Snap</desc>
    <defs></defs>
    <g>
        <g transform="matrix(22.1011,0,0,22.1011,-2320.3067,-846.1547)">
            <g>
                <path
                    d="M82.966,30.566c-6.635,0-12.033,5.398-12.033,12.033c0,0.727,0.075,1.433,0.199,2.123l-10.315,3.353   c-1.494-3.082-4.28-5.515-7.852-6.425c-0.438-0.111-0.885-0.19-1.332-0.252V30.556c5.863-0.803,10.398-5.83,10.398-11.908   c0-6.636-5.399-12.035-12.035-12.035s-12.032,5.399-12.032,12.035c0,6.078,4.534,11.105,10.396,11.908v10.843   c-4.001,0.546-7.442,3.066-9.186,6.676l-10.306-3.349c0.124-0.69,0.199-1.398,0.199-2.125c0-6.635-5.398-12.032-12.033-12.032   C10.398,30.568,5,35.966,5,42.601c0,6.636,5.398,12.035,12.034,12.035c4.756,0,8.865-2.781,10.817-6.797l10.314,3.352   c-0.729,4.059,0.688,8.077,3.507,10.794l-6.368,8.765c-1.693-0.91-3.627-1.43-5.68-1.43c-6.636,0-12.035,5.398-12.035,12.033   c0,6.636,5.399,12.035,12.035,12.035c6.635,0,12.032-5.399,12.032-12.035c0-3.405-1.429-6.479-3.71-8.67l6.377-8.774   c0.841,0.45,1.739,0.818,2.704,1.063c0.976,0.248,1.977,0.373,2.975,0.373c2.035,0,3.973-0.512,5.676-1.426l6.368,8.763   c-2.283,2.192-3.712,5.266-3.712,8.671c0,6.636,5.399,12.035,12.035,12.035c6.635,0,12.033-5.399,12.033-12.035   c0-6.635-5.398-12.033-12.033-12.033c-2.054,0-3.987,0.52-5.68,1.43l-6.365-8.76c1.579-1.517,2.761-3.469,3.332-5.709   c0.438-1.721,0.468-3.447,0.17-5.09l10.321-3.354c1.952,4.016,6.061,6.798,10.817,6.798C89.602,54.634,95,49.235,95,42.6   C95,35.965,89.602,30.566,82.966,30.566z M17.034,51.362c-4.831,0-8.761-3.931-8.761-8.762c0-4.829,3.93-8.759,8.761-8.759   c4.829,0,8.76,3.93,8.76,8.759C25.794,47.432,21.863,51.362,17.034,51.362z M38.384,81.353c0,4.831-3.93,8.762-8.759,8.762   c-4.831,0-8.762-3.931-8.762-8.762c0-4.829,3.931-8.759,8.762-8.759C34.454,72.594,38.384,76.523,38.384,81.353z M70.37,72.594   c4.829,0,8.76,3.93,8.76,8.759c0,4.831-3.931,8.762-8.76,8.762c-4.83,0-8.762-3.931-8.762-8.762   C61.608,76.523,65.54,72.594,70.37,72.594z M41.237,18.647c0-4.831,3.929-8.762,8.759-8.762c4.831,0,8.761,3.931,8.761,8.762   c0,4.829-3.93,8.759-8.761,8.759C45.166,27.406,41.237,23.477,41.237,18.647z M58.484,55.474c-0.988,3.884-4.478,6.598-8.481,6.598   c-0.728,0-1.456-0.092-2.168-0.273c-4.678-1.19-7.516-5.967-6.325-10.646c0.991-3.886,4.479-6.6,8.483-6.6   c0.727,0,1.454,0.092,2.165,0.272C56.836,46.018,59.674,50.795,58.484,55.474z M82.966,51.36c-4.829,0-8.76-3.931-8.76-8.761   s3.931-8.76,8.76-8.76c4.831,0,8.761,3.93,8.761,8.76S87.797,51.36,82.966,51.36z"
                    fill="orange" style=""></path>
            </g>
            <desc>Created with Snap</desc>
            <defs></defs>
        </g>
        <g>
            <g transform="matrix(0.5,0,0,-0.5,0,0)">
                <path
                    d="M173 0L173 1068L603 1068L603 754Q672 925 751 1005Q831 1086 911 1086Q956 1086 982 1062Q1009 1039 1009 1010Q1009 981 1001 964Q993 947 980 935Q953 910 929 910Q891 910 873 918Q842 932 818 932Q794 932 757 893Q720 855 686 787Q603 621 603 427L603 0L173 0ZM2066 243Q2105 243 2105 207Q2105 180 2070 143Q1912 -19 1637 -19Q1390 -19 1221 130Q1046 285 1046 522Q1046 764 1204 920Q1371 1086 1648 1086Q1870 1086 2021 951Q2184 806 2184 570Q2184 536 2182 498L1522 498L1522 69Q1590 55 1675 55Q1855 55 1982 174Q2008 200 2019 215Q2042 243 2066 243ZM1799 571L1799 994Q1734 1013 1652 1013Q1570 1013 1522 1002L1522 571L1799 571ZM2360 134Q2360 149 2370 161Q2381 174 2398 174Q2415 174 2426 164Q2426 164 2451 141Q2555 50 2742 50Q2868 50 2904 102Q2914 116 2914 130Q2914 145 2908 158Q2903 172 2885 191Q2867 211 2834 238L2746 309Q2528 479 2447 585Q2373 682 2373 783Q2373 910 2490 996Q2611 1086 2803 1086Q2938 1086 3016 1055Q3094 1024 3126 998Q3158 973 3158 952Q3158 909 3124 909Q3108 909 3094 920Q3081 932 3041 959Q3001 987 2935 1003Q2869 1019 2812 1019Q2755 1019 2731 1001Q2708 983 2708 965Q2708 948 2715 932Q2722 917 2741 896Q2785 844 2882 773Q2979 702 3046 643Q3113 584 3151 534Q3220 444 3220 352Q3220 260 3186 194Q3152 129 3089 82Q2956 -19 2734 -19Q2556 -19 2437 49Q2360 92 2360 134ZM4389 243Q4428 243 4428 207Q4428 180 4393 143Q4235 -19 3960 -19Q3713 -19 3544 130Q3369 285 3369 522Q3369 764 3527 920Q3694 1086 3971 1086Q4193 1086 4344 951Q4507 806 4507 570Q4507 536 4505 498L3845 498L3845 69Q3913 55 3998 55Q4178 55 4305 174Q4331 200 4342 215Q4365 243 4389 243ZM4122 571L4122 994Q4057 1013 3975 1013Q3893 1013 3845 1002L3845 571L4122 571ZM4761 0L4761 1068L5191 1068L5191 754Q5260 925 5339 1005Q5419 1086 5499 1086Q5544 1086 5570 1062Q5597 1039 5597 1010Q5597 981 5589 964Q5581 947 5568 935Q5541 910 5517 910Q5479 910 5461 918Q5430 932 5406 932Q5382 932 5345 893Q5308 855 5274 787Q5191 621 5191 427L5191 0L4761 0ZM6106 -45L5557 1068L6010 1068L6282 507L6453 847Q6506 956 6519 1009Q6533 1062 6546 1074Q6560 1086 6579 1086Q6599 1086 6610 1073Q6621 1060 6621 1047Q6621 1034 6618 1021Q6616 1008 6609 986Q6594 945 6546 844L6106 -45ZM7564 1021Q7685 1021 7781 950L7791 1007L8132 1007L7992 198Q8162 231 8280 387Q8400 548 8400 761Q8400 1039 8196 1188Q8000 1330 7663 1330Q7435 1330 7230 1214Q7029 1099 6910 911Q6785 714 6785 491Q6785 149 7024 -45Q7240 -221 7541 -221Q7682 -221 7821 -163Q7864 -146 7883 -146Q7903 -146 7915 -157Q7927 -168 7927 -188Q7927 -247 7712 -280Q7616 -295 7517 -295Q7419 -295 7315 -273Q7211 -250 7119 -206Q7028 -161 6952 -95Q6876 -29 6822 58Q6706 241 6706 485Q6706 736 6842 950Q6973 1156 7196 1277Q7422 1400 7680 1400Q8033 1400 8250 1232Q8478 1055 8478 752Q8478 554 8370 396Q8270 248 8096 164Q7926 81 7728 81L7631 91L7646 175Q7521 103 7424 103Q7327 103 7263 128Q7200 154 7156 202Q7064 301 7064 475Q7064 706 7192 857Q7330 1021 7564 1021ZM7551 948L7411 178Q7415 177 7449 177Q7484 177 7543 198Q7603 220 7661 260L7767 873Q7670 948 7555 948L7551 948Z"
                    fill="black" style=""></path>
            </g>
        </g>
        <g transform="matrix(0.75,0,0,0.75,44.5,1029.575)">
            <g transform="matrix(0.5,0,0,-0.5,0,0)">
                <path
                    d="M296 739Q296 454 427 291Q558 129 814 129Q1070 129 1199 291Q1329 453 1329 739Q1329 1031 1198 1192Q1068 1353 815 1353Q562 1353 429 1192Q296 1031 296 739ZM1514 739Q1514 570 1467 430Q1421 290 1333 189Q1246 89 1113 33Q980 -22 814 -22Q590 -22 430 73Q271 169 191 339Q112 510 112 740Q112 1095 297 1300Q482 1505 815 1505Q1143 1505 1328 1298Q1514 1092 1514 739ZM1938 0L1769 0L1769 1097L1909 1097L1930 940Q1995 1021 2092 1070Q2190 1120 2303 1120Q2493 1120 2584 1013Q2675 907 2675 686L2675 0L2508 0Q2508 660 2507 707Q2503 847 2450 912Q2398 977 2275 977Q2146 977 2060 915Q1974 853 1948 754Q1938 687 1938 600L1938 0ZM3248 -20Q3088 -20 3021 66Q2955 152 2955 365L2955 1523L3121 1533L3121 431Q3121 363 3122 322Q3124 281 3130 241Q3136 202 3146 182Q3156 162 3175 145Q3194 129 3220 123Q3247 118 3286 118Q3318 118 3412 130L3421 -3Q3318 -20 3248 -20ZM3551 1097L3719 1097L3719 0L3551 0L3551 1097ZM3551 1496L3719 1496L3719 1298L3551 1298L3551 1496ZM4202 0L4033 0L4033 1097L4173 1097L4194 940Q4259 1021 4356 1070Q4454 1120 4567 1120Q4757 1120 4848 1013Q4939 907 4939 686L4939 0L4772 0Q4772 660 4771 707Q4767 847 4714 912Q4662 977 4539 977Q4410 977 4324 915Q4238 853 4212 754Q4202 687 4202 600L4202 0ZM5849 894Q5776 982 5648 982Q5520 982 5439 891Q5358 801 5344 644L5923 644Q5923 807 5849 894ZM5681 -23Q5442 -23 5304 129Q5167 281 5167 545Q5167 800 5300 958Q5433 1117 5650 1120Q5854 1120 5973 980Q6093 841 6093 608Q6093 596 6092 564Q6092 532 6092 518L5339 518Q5342 331 5435 226Q5529 122 5687 122Q5861 122 6036 214L6062 79Q5895 -23 5681 -23ZM7307 704L7040 704L7040 142L7349 142Q7537 142 7631 211Q7725 281 7725 428Q7725 581 7623 642Q7522 704 7307 704ZM7040 1333L7040 843L7357 843Q7512 843 7591 897Q7670 951 7670 1089Q7670 1228 7575 1280Q7481 1333 7282 1333L7040 1333ZM6867 0L6867 1479L7291 1479Q7576 1479 7713 1392Q7851 1305 7851 1115Q7851 1087 7847 1059Q7844 1032 7829 989Q7815 946 7790 910Q7765 875 7716 839Q7668 804 7603 783Q7752 755 7829 657Q7906 559 7906 421Q7906 220 7774 110Q7643 0 7383 0L6867 0ZM8244 546Q8244 351 8330 233Q8417 116 8583 116Q8747 116 8830 233Q8914 350 8914 548Q8914 749 8831 864Q8749 980 8580 980Q8416 980 8330 862Q8244 744 8244 546ZM9087 549Q9087 294 8951 135Q8815 -23 8575 -23Q8344 -23 8207 137Q8071 297 8071 548Q8071 804 8208 962Q8345 1120 8584 1120Q8819 1120 8953 961Q9087 803 9087 549ZM9445 546Q9445 351 9531 233Q9618 116 9784 116Q9948 116 10031 233Q10115 350 10115 548Q10115 749 10032 864Q9950 980 9781 980Q9617 980 9531 862Q9445 744 9445 546ZM10288 549Q10288 294 10152 135Q10016 -23 9776 -23Q9545 -23 9408 137Q9272 297 9272 548Q9272 804 9409 962Q9546 1120 9785 1120Q10020 1120 10154 961Q10288 803 10288 549ZM10692 0L10526 0L10526 1523L10692 1533L10692 736L10692 596Q10698 602 10710 616Q10722 630 10729 637Q10816 732 11179 1097L11391 1097L10935 635L11423 0L11215 0L10814 540L10692 435L10692 0ZM11594 1097L11762 1097L11762 0L11594 0L11594 1097ZM11594 1496L11762 1496L11762 1298L11594 1298L11594 1496ZM12245 0L12076 0L12076 1097L12216 1097L12237 940Q12302 1021 12399 1070Q12497 1120 12610 1120Q12800 1120 12891 1013Q12982 907 12982 686L12982 0L12815 0Q12815 660 12814 707Q12810 847 12757 912Q12705 977 12582 977Q12453 977 12367 915Q12281 853 12255 754Q12245 687 12245 600L12245 0ZM13686 143Q13771 143 13835 173Q13899 203 13935 256Q13971 309 13988 374Q14006 439 14006 516L14006 597Q14006 677 13988 744Q13970 812 13932 865Q13895 919 13832 949Q13770 979 13687 979Q13618 979 13561 953Q13505 927 13468 884Q13432 842 13406 785Q13381 729 13370 671Q13359 613 13359 554Q13359 496 13371 439Q13383 382 13409 328Q13435 274 13472 233Q13509 193 13564 168Q13620 143 13686 143ZM13614 -502L13429 -502L13414 -351L13618 -351Q13703 -351 13766 -339Q13829 -327 13871 -300Q13913 -272 13939 -239Q13965 -205 13978 -152Q13992 -98 13996 -46Q14001 7 14001 83L14001 180Q13941 94 13862 47Q13783 1 13661 1Q13567 1 13487 33Q13408 66 13353 120Q13299 174 13260 245Q13222 316 13204 392Q13187 468 13187 545Q13187 665 13216 767Q13246 869 13304 949Q13362 1029 13456 1074Q13551 1120 13673 1120Q13781 1120 13861 1078Q13942 1037 14006 951L14006 1097L14169 1097L14169 79Q14169 9 14165 -44Q14162 -96 14148 -160Q14135 -224 14112 -270Q14089 -316 14047 -363Q14006 -409 13948 -438Q13891 -466 13806 -484Q13721 -502 13614 -502Z"
                    fill="black" style=""></path>
            </g>
        </g>
    </g>
</svg>